# xmcd
#
# Track frame offsets:
#	150
#	17069
#	32810
#	48852
#	76717
#	92736
#	110185
#	124637
#	151574
#
# Disc length: 2338 seconds
#
# Revision: 0
# Processed by: cddbd v1.5.2PL0 Copyright (c) Steve Scherf et al.
# Submitted via: audiograbber 1.83.01
#
DISCID=5e092009
DTITLE=Golden Earring - Complete Studio Recordings [CD 06) - Golden Earring [re
DTITLE=mastered 2017]
DYEAR=1970
DGENRE=Rock
TTITLE0=Yellow And Blue
TTITLE1=The Loner
TTITLE2=This Is The Time Of The Year
TTITLE3=Big Tree Blue Sea
TTITLE4=The Wall Of Dolls
TTITLE5=Back Home
TTITLE6=See See
TTITLE7=I'm Going To Send My Pigeons To The Sky
TTITLE8=As Long As The Wind Blows
EXTD=
EXTT0=
EXTT1=
EXTT2=
EXTT3=
EXTT4=
EXTT5=
EXTT6=
EXTT7=
EXTT8=
PLAYORDER=
